<mxfile host="app.diagrams.net" modified="2024-02-27T02:19:15.424Z" agent="Mozilla/5.0 (Macintosh; Intel Mac OS X 10_15_7) AppleWebKit/537.36 (KHTML, like Gecko) Chrome/122.0.0.0 Safari/537.36" version="23.1.1" etag="Eodn0mDusQskGlz9jnQr" type="github">
  <diagram name="Trang-1" id="0bqaWTgQEx8oi3_PQq6m">
    <mxGraphModel>
      <root>
        <mxCell id="0" />
        <mxCell id="1" parent="0" />
      </root>
    </mxGraphModel>
  </diagram>
</mxfile>
